:SAMPLES-PER-SECOND 30
:FULLY-SPECIFIED
:DEGREES
493
root  -33.0279 35.0366 3.86373 -172.94 82.4417 179.685
RightUpLeg  -3.9198 -9.56622 -0.847336
RightLeg  2.02019 11.1434 -0.31886
RightFoot  5.48715 -0.015551 1.17001
RightToes  -35.3691 -0.173014 -0.274624
Spine  -2.64369 -0.50506 1.06326
Spine1  -5.22846 -0.873643 2.82515
HEad  -16.4081 36.7491 0.913474
LeftShoulder1  -1.94126e-019 -3.10601e-018 -2.51263e-017
LeftArm  33.2141 5.99945 -79.0373
LeftForeArm  41.455 -37.6536 -6.14199
LeftHand  -0.13555 -3.99438 1.9472
RightShoulder  -4.96962e-017 0 -2.36833e-017
RightArm  1.05723 -22.6595 71.2597
RightForeArm  50.3709 71.4641 28.5544
RightHand  -0.0359641 -3.11141 -0.999844
LeftUpLeg  -4.17083 3.38511 -0.280453
LeftLeg  0.901293 14.5971 -0.701386
LeftFoot  7.65538 -0.133117 2.15729
LeftToes  -18.2172 1.89912e-006 4.45198e-008
494
root  -33.0273 35.0375 3.88201 -172.825 82.2856 179.781
RightUpLeg  -3.89365 -9.71831 -0.796468
RightLeg  1.9625 11.143 -0.330019
RightFoot  5.50442 -0.0146816 1.17213
RightToes  -35.3061 -0.173001 -0.274241
Spine  -2.66148 -0.515246 1.04822
Spine1  -5.25812 -0.90791 2.80371
HEad  -16.2917 37.6224 1.2989
LeftShoulder1  -1.94126e-019 -3.10601e-018 -2.51263e-017
LeftArm  34.6557 5.41212 -78.984
LeftForeArm  41.3809 -37.7429 -6.17109
LeftHand  -0.0955676 -4.4768 1.4112
RightShoulder  -4.96962e-017 0 -2.36833e-017
RightArm  3.9316 -21.7918 71.2819
RightForeArm  58.3668 75.5175 38.9659
RightHand  -0.032436 -3.30604 -0.83256
LeftUpLeg  -4.15453 3.30414 -0.232859
LeftLeg  0.780082 14.5328 -0.728832
LeftFoot  7.7559 -0.134629 2.17342
LeftToes  -18.3416 1.89912e-006 4.45198e-008
495
root  -32.9875 35.0384 3.92575 -172.458 82.6761 -179.93
RightUpLeg  -3.89246 -9.05224 -0.682664
RightLeg  1.80789 10.8512 -0.350699
RightFoot  5.54994 -0.012277 1.1516
RightToes  -35.1995 -0.173011 -0.273872
Spine  -2.67827 -0.319766 1.03832
Spine1  -5.2763 -0.533264 2.78888
HEad  -16.2449 38.6246 1.58981
LeftShoulder1  -1.94126e-019 -3.10601e-018 -2.51263e-017
LeftArm  35.4844 4.96202 -79.0326
LeftForeArm  41.1952 -37.8624 -6.2158
LeftHand  -0.104133 -4.74843 1.48804
RightShoulder  -4.96962e-017 0 -2.36833e-017
RightArm  6.99093 -20.7621 71.3859
RightForeArm  72.3231 78.6792 55.1689
RightHand  -0.0336397 -3.50701 -0.858737
LeftUpLeg  -4.02116 4.06113 -0.135209
LeftLeg  0.528295 14.1553 -0.771998
LeftFoot  7.84691 -0.13305 2.14094
LeftToes  -18.5563 1.89912e-006 4.45198e-008
496
root  -32.9784 35.039 3.9395 -172.382 82.581 -179.86
RightUpLeg  -3.8346 -9.15416 -0.648837
RightLeg  1.72742 10.8539 -0.365972
RightFoot  5.56752 -0.0114626 1.15304
RightToes  -35.1122 -0.173044 -0.273518
Spine  -2.68054 -0.29148 1.03979
Spine1  -5.27566 -0.493383 2.80018
HEad  -16.0873 40.0019 1.92876
LeftShoulder1  -1.94126e-019 -3.10601e-018 -2.51263e-017
LeftArm  35.857 4.6165 -79.1603
LeftForeArm  40.9698 -37.7793 -6.2058
LeftHand  -0.0365649 -5.52092 0.707612
RightShoulder  -4.96962e-017 0 -2.36833e-017
RightArm  10.191 -19.3324 71.5777
RightForeArm  90.6236 80.2703 76.0325
RightHand  -0.0347003 -3.58658 -1.01937
LeftUpLeg  -4.01137 3.97352 -0.0976388
LeftLeg  0.492268 14.1554 -0.780839
LeftFoot  7.90409 -0.134391 2.15341
LeftToes  -18.6274 1.89912e-006 4.45198e-008
497
root  -32.9694 35.0395 3.94753 -172.354 82.5594 -179.842
RightUpLeg  -3.86331 -9.17567 -0.631083
RightLeg  1.79818 10.8654 -0.352984
RightFoot  5.56214 -0.0104164 1.15043
RightToes  -35.1459 -0.173099 -0.273177
Spine  -2.67583 -0.235192 1.05887
Spine1  -5.26394 -0.400952 2.83114
HEad  -15.745 41.6147 2.40458
LeftShoulder1  -1.94126e-019 -3.10601e-018 -2.51263e-017
LeftArm  36.1874 4.29435 -79.3892
LeftForeArm  40.4636 -37.4968 -6.15624
LeftHand  -0.0391624 -5.5246 0.735206
RightShoulder  -4.96962e-017 0 -2.36833e-017
RightArm  13.6763 -17.5301 71.7421
RightForeArm  110.608 80.3852 97.8346
RightHand  -0.0329721 -3.28031 -0.860518
LeftUpLeg  -3.99808 3.91133 -0.0788856
LeftLeg  0.464454 14.2 -0.784336
LeftFoot  7.94791 -0.13591 2.16834
LeftToes  -18.5914 1.89912e-006 4.45198e-008
